# xmcd
#
# Track frame offsets: 
#        150
#        19050
#        31495
#        50316
#        72130
#        89275
#        108615
#        120765
#        134959
#        152271
#        170418
#        183443
#        202035
#
# Disc length: 2946 seconds
#
# Revision: 0
# Processed by: cddbd v1.5.2PL0 Copyright (c) Steve Scherf et al.
# Submitted via: ExactAudioCopy v1.0b3
#
DISCID=ab0b800d
DTITLE=Greg Copeland - Who's afraid of the black man?
DYEAR=2013
DGENRE=Blues
TTITLE0=Celia
TTITLE1=A woman gotta have the last word
TTITLE2=Will to live
TTITLE3=Gimme what you got
TTITLE4=Ain't no love
TTITLE5=Freedom
TTITLE6=Makes a man wanna change
TTITLE7=Who's afraid of the black man
TTITLE8=You put a smile on my face
TTITLE9=For what it's worth
TTITLE10=People get ready
TTITLE11=That's not love
TTITLE12=Alcohol
EXTD=
EXTT0=
EXTT1=
EXTT2=
EXTT3=
EXTT4=
EXTT5=
EXTT6=
EXTT7=
EXTT8=
EXTT9=
EXTT10=
EXTT11=
EXTT12=
PLAYORDER=
